<svg xmlns="http://www.w3.org/2000/svg" viewBox="0 0 24 24" fill="#67e8f9">
  <path d="M12 2.2c3.2 0 3.6 0 4.9.1 1.2.1 1.9.3 2.3.5.6.3 1 .6 1.5 1.1.5.5.8.9 1.1 1.5.2.4.4 1.1.5 2.3.1 1.3.1 1.7.1 4.9s0 3.6-.1 4.9c-.1 1.2-.3 1.9-.5 2.3-.3.6-.6 1-1.1 1.5-.5.5-.9.8-1.5 1.1-.4.2-1.1.4-2.3.5-1.3.1-1.7.1-4.9.1s-3.6 0-4.9-.1c-1.2-.1-1.9-.3-2.3-.5-.6-.3-1-.6-1.5-1.1-.5-.5-.8-.9-1.1-1.5-.2-.4-.4-1.1-.5-2.3C2.2 15.6 2.2 15.2 2.2 12s0-3.6.1-4.9c.1-1.2.3-1.9.5-2.3.3-.6.6-1 1.1-1.5.5-.5.9-.8 1.5-1.1.4-.2 1.1-.4 2.3-.5C8.4 2.2 8.8 2.2 12 2.2zm0 3.2a6.6 6.6 0 1 0 0 13.2 6.6 6.6 0 0 0 0-13.2zm0 10.9a4.3 4.3 0 1 1 0-8.6 4.3 4.3 0 0 1 0 8.6zm6.8-11.5a1.5 1.5 0 1 1-3 0 1.5 1.5 0 0 1 3 0z"/>
</svg>
